<?xml version="1.0" standalone="no"?><!DOCTYPE svg PUBLIC "-//W3C//DTD SVG 1.1//EN" "http://www.w3.org/Graphics/SVG/1.1/DTD/svg11.dtd"><svg t="1655469826453" class="icon" viewBox="0 0 1024 1024" version="1.1" xmlns="http://www.w3.org/2000/svg" p-id="3508" xmlns:xlink="http://www.w3.org/1999/xlink" width="200" height="200"><defs><style type="text/css"></style></defs><path d="M733.2 488.3c6.6 6.6 10.7 15.7 10.7 25.8 0 10.1-4.1 19.2-10.7 25.8-0.7 1-1.7 0.4-1-4.4-1.2 7-4.5 13.2-9.3 18L330.5 945.8c-6.2 6-14.7 9.7-24.1 9.7-19.2 0-34.7-15.5-34.7-34.7 0-9.4 3.7-17.9 9.7-24.1l378.5-378.5-391-391c-6.6-6.6-10.7-15.7-10.7-25.8 0-20.2 16.3-36.5 36.5-36.5 10.1 0 19.2 4.1 25.8 10.7l412.7 412.7z m0 0" p-id="3509"></path></svg>